<svg id="Logos" xmlns="http://www.w3.org/2000/svg" viewBox="0 0 1014.38 144">
  <defs>
    <style>
      .cls-1 {
        fill: #fff;
      }

      .cls-2 {
        fill: #ee2435;
      }
    </style>
  </defs>
  <title>Logo-Red_Hat-s-SatelliteHat-Standard-CMYK</title>
  <g>
    <g>
      <path class="cls-1" d="M643.23,91.22c7.8,7.69,15.81,11.44,25.06,11.44,10.61,0,17.68-5,17.68-12.17,0-6.35-4-9.67-14.76-11.44l-12.17-2c-13.52-2.29-19.87-8.63-19.87-18.93,0-12.58,10.51-20.9,26.84-20.9a49.28,49.28,0,0,1,29.33,9.88l-6,8.32c-7.9-6-15.81-8.95-23.81-8.95-9.47,0-15.81,4.37-15.81,10.82,0,5.82,3.64,8.74,13,10.3l11.75,1.87c15.5,2.5,22.36,8.94,22.36,20.18,0,13.31-11.65,22.36-29,22.36a43.85,43.85,0,0,1-31.2-13.11Z" transform="translate(-2 -2)"/>
      <path class="cls-1" d="M705,95.79c0-10.61,9-16.12,21.43-16.12a36.59,36.59,0,0,1,14.45,2.91V77c0-7.49-4.47-11.23-12.89-11.23-5.1,0-10.3,1.56-16.43,4.47l-3.85-7.8c7.48-3.54,14.35-5.41,21.73-5.41,13.63,0,21.64,6.65,21.64,18.93V111h-10.2V106.4a24.92,24.92,0,0,1-16.43,5.51C712.91,111.91,705,105.26,705,95.79Zm21.84,8.43a20.34,20.34,0,0,0,14-5V90a27.73,27.73,0,0,0-13.62-3.12C720,86.85,715,90.07,715,95.58,715,100.78,719.88,104.22,726.84,104.22Z" transform="translate(-2 -2)"/>
      <path class="cls-1" d="M767.92,66.78H756.69V58h11.23V44.52l10.3-2.5V58h15.6v8.74h-15.6v28.7c0,5.41,2.18,7.38,7.8,7.38a20.18,20.18,0,0,0,7.59-1.24v8.73a35.44,35.44,0,0,1-9.88,1.56c-10.3,0-15.81-4.89-15.81-14Z" transform="translate(-2 -2)"/>
      <path class="cls-1" d="M824.5,57.21c14.56,0,25.59,12.06,25.59,27.66v3H808.28a17.84,17.84,0,0,0,17.89,15.18,20.61,20.61,0,0,0,13.41-4.68l6.66,6.55a31.2,31.2,0,0,1-20.49,7c-15.6,0-27.77-12-27.77-27.45C798,69.27,809.52,57.21,824.5,57.21ZM808.38,80.09h31.41c-1.46-8.11-7.8-14.15-15.5-14.15C816.18,65.94,809.94,71.77,808.38,80.09Z" transform="translate(-2 -2)"/>
      <path class="cls-1" d="M870.26,111h-10.4V38.17l10.4-2.28Z" transform="translate(-2 -2)"/>
      <path class="cls-1" d="M892.72,111h-10.4V38.17l10.4-2.28Z" transform="translate(-2 -2)"/>
      <path class="cls-1" d="M903.54,43.06A6.48,6.48,0,0,1,910,36.61a6.45,6.45,0,0,1,0,12.9A6.48,6.48,0,0,1,903.54,43.06ZM915.18,111h-10.4V58h10.4Z" transform="translate(-2 -2)"/>
      <path class="cls-1" d="M934.22,66.78H923V58h11.24V44.52L944.51,42V58h15.6v8.74h-15.6v28.7c0,5.41,2.19,7.38,7.8,7.38a20.18,20.18,0,0,0,7.59-1.24v8.73a35.44,35.44,0,0,1-9.88,1.56c-10.29,0-15.8-4.89-15.8-14Z" transform="translate(-2 -2)"/>
      <path class="cls-1" d="M990.79,57.21c14.56,0,25.59,12.06,25.59,27.66v3H974.57a17.84,17.84,0,0,0,17.89,15.18,20.57,20.57,0,0,0,13.41-4.68l6.66,6.55a31.2,31.2,0,0,1-20.49,7c-15.6,0-27.77-12-27.77-27.45C964.27,69.27,975.82,57.21,990.79,57.21ZM974.67,80.09h31.41c-1.45-8.11-7.8-14.15-15.49-14.15C982.47,65.94,976.23,71.77,974.67,80.09Z" transform="translate(-2 -2)"/>
    </g>
    <g>
      <path class="cls-2" d="M129,85c12.51,0,30.61-2.58,30.61-17.46a14,14,0,0,0-.31-3.42l-7.45-32.36c-1.72-7.12-3.23-10.35-15.73-16.6C126.39,10.19,105.26,2,99,2c-5.82,0-7.55,7.54-14.45,7.54-6.68,0-11.64-5.6-17.89-5.6-6,0-9.91,4.09-12.93,12.5,0,0-8.41,23.72-9.49,27.16A6.43,6.43,0,0,0,44,45.54C44,54.76,80.33,85,129,85m32.55-11.42c1.73,8.19,1.73,9.05,1.73,10.13,0,14-15.74,21.77-36.43,21.77C80,105.47,39.08,78.1,39.08,60a18.45,18.45,0,0,1,1.51-7.33C23.77,53.52,2,56.54,2,75.72,2,107.2,76.59,146,135.65,146c45.28,0,56.7-20.48,56.7-36.65,0-12.72-11-27.16-30.83-35.78" transform="translate(-2 -2)"/>
      <path d="M161.52,73.57c1.73,8.19,1.73,9.05,1.73,10.13,0,14-15.74,21.77-36.43,21.77C80,105.47,39.08,78.1,39.08,60a18.45,18.45,0,0,1,1.51-7.33l3.66-9.06A6.43,6.43,0,0,0,44,45.54C44,54.76,80.33,85,129,85c12.51,0,30.61-2.58,30.61-17.46a14,14,0,0,0-.31-3.42Z" transform="translate(-2 -2)"/>
    </g>
    <path class="cls-1" d="M581.24,94.3c0,11.89,7.15,17.67,20.19,17.67a52.11,52.11,0,0,0,11.89-1.68V96.51a24.84,24.84,0,0,1-7.68,1.16c-5.37,0-7.36-1.68-7.36-6.73V69.8h15.56V55.6H598.28v-18l-17,3.68V55.6H570V69.8h11.25Zm-53,.32c0-3.68,3.69-5.47,9.26-5.47a43.12,43.12,0,0,1,10.1,1.26v7.15A21.51,21.51,0,0,1,537,100.19c-5.46,0-8.73-2.1-8.73-5.57m5.2,17.56c6,0,10.84-1.26,15.36-4.31v3.37h16.82V75.58c0-13.56-9.14-21-24.39-21-8.52,0-16.94,2-26,6.1l6.1,12.52c6.52-2.74,12-4.42,16.83-4.42,7,0,10.62,2.73,10.62,8.31v2.73a49.53,49.53,0,0,0-12.62-1.58c-14.31,0-22.93,6-22.93,16.73,0,9.78,7.78,17.24,20.19,17.24m-92.44-.94h18.09V82.42h30.29v28.82h18.09V37.62H489.43V65.91H459.14V37.62H441.05ZM372.12,83.37c0-8,6.31-14.1,14.62-14.1a17.22,17.22,0,0,1,11.78,4.32V93a16.36,16.36,0,0,1-11.78,4.42c-8.2,0-14.62-6.1-14.62-14.09m26.61,27.87h16.83V33.94l-17,3.68V58.55a28.3,28.3,0,0,0-14.2-3.68c-16.19,0-28.92,12.51-28.92,28.5A28.25,28.25,0,0,0,383.8,112a25.12,25.12,0,0,0,14.93-4.83Zm-77.19-42.7c5.36,0,9.88,3.47,11.67,8.83H310c1.68-5.57,5.89-8.83,11.57-8.83M292.83,83.47c0,16.2,13.25,28.82,30.28,28.82,9.36,0,16.2-2.53,23.25-8.42l-11.26-10c-2.63,2.74-6.52,4.21-11.14,4.21a14.39,14.39,0,0,1-13.68-8.83h39.65V85.05c0-17.67-11.88-30.39-28.08-30.39a28.57,28.57,0,0,0-29,28.81M263.49,53.08c6,0,9.36,3.78,9.36,8.31s-3.37,8.31-9.36,8.31H245.61V53.08Zm-36,58.16h18.09V84.42h13.77l13.89,26.82h20.19l-16.2-29.45a22.27,22.27,0,0,0,13.88-20.72c0-13.25-10.41-23.45-26-23.45H227.52Z" transform="translate(-2 -2)"/>
  </g>
</svg>
