<?xml version="1.0" encoding="utf-8"?>
<!-- Generator: Adobe Illustrator 19.2.1, SVG Export Plug-In . SVG Version: 6.00 Build 0)  -->
<svg version="1.1" id="Layer_1" xmlns="http://www.w3.org/2000/svg" xmlns:xlink="http://www.w3.org/1999/xlink" x="0px" y="0px"
	 viewBox="0 0 152.7 10.9" style="enable-background:new 0 0 152.7 10.9;" xml:space="preserve">
<style type="text/css">
	.st0{fill:#FFFFFF;}
</style>
<g>
	<g>
		<g>
			<path class="st0" d="M5.7,10.8L4,7.2H2.8v3.5H0V0.3h4.7c0.6,0,1.2,0.1,1.7,0.2c0.5,0.1,0.9,0.3,1.3,0.6C8,1.3,8.3,1.7,8.5,2.1
				c0.2,0.4,0.3,1,0.3,1.6c0,0.8-0.2,1.4-0.5,1.9C7.9,6.1,7.5,6.5,6.9,6.8l2.1,4H5.7z M5.6,3c-0.2-0.2-0.5-0.3-1-0.3H2.8v2.3h1.7
				c0.5,0,0.8-0.1,1-0.3c0.2-0.2,0.3-0.5,0.3-0.9C5.9,3.4,5.8,3.2,5.6,3z"/>
		</g>
		<g>
			<path class="st0" d="M10.7,10.8V0.3h8v2.4h-5.2v1.4h3.1v2.4h-3.1v1.8h5.3v2.4H10.7z"/>
		</g>
		<g>
			<path class="st0" d="M29.4,8c-0.2,0.7-0.6,1.2-1.1,1.6c-0.5,0.4-1.1,0.7-1.8,0.9c-0.7,0.2-1.5,0.3-2.5,0.3h-3.4V0.3h3.7
				c0.8,0,1.6,0.1,2.2,0.3c0.7,0.2,1.2,0.5,1.7,0.9c0.5,0.4,0.8,0.9,1.1,1.6c0.3,0.7,0.4,1.5,0.4,2.5C29.8,6.4,29.7,7.3,29.4,8z
				 M26.7,4.3c-0.1-0.4-0.2-0.6-0.4-0.9c-0.2-0.2-0.4-0.4-0.7-0.5c-0.3-0.1-0.7-0.2-1.1-0.2h-0.7v5.5h0.6c0.5,0,0.8,0,1.2-0.1
				C25.7,8,26,7.9,26.2,7.7c0.2-0.2,0.4-0.5,0.4-0.9c0.1-0.4,0.1-0.8,0.1-1.3C26.8,5,26.7,4.6,26.7,4.3z"/>
		</g>
		<g>
			<path class="st0" d="M42.1,10.8V6.6h-3.3v4.1h-3V0.3h3v3.8h3.3V0.3h3v10.5H42.1z"/>
		</g>
		<g>
			<path class="st0" d="M54,10.8l-0.6-1.8h-3.1l-0.6,1.8h-3.1l3.8-10.5h2.9l3.8,10.5H54z M52.5,5.9c-0.1-0.3-0.2-0.6-0.2-0.9
				c-0.1-0.3-0.1-0.5-0.2-0.7C52,4.2,52,4,51.9,3.8c0-0.2-0.1-0.3-0.1-0.5c0,0.2-0.1,0.4-0.1,0.5c0,0.2-0.1,0.4-0.1,0.6
				c-0.1,0.2-0.1,0.4-0.2,0.7c-0.1,0.2-0.1,0.5-0.2,0.9L51,6.6h1.7L52.5,5.9z"/>
		</g>
		<g>
			<path class="st0" d="M62.6,2.8v8h-2.9v-8h-2.9V0.3h8.8v2.5H62.6z"/>
		</g>
	</g>
	<g>
		<path class="st0" d="M68.9,1.7c-0.1,0.1-0.1,0.2-0.2,0.3c-0.1,0.1-0.2,0.2-0.3,0.2c-0.1,0.1-0.3,0.1-0.4,0.1c-0.1,0-0.3,0-0.4-0.1
			c-0.1-0.1-0.2-0.1-0.3-0.2C67.1,2,67.1,1.9,67,1.7c-0.1-0.1-0.1-0.3-0.1-0.4c0-0.1,0-0.3,0.1-0.4c0.1-0.1,0.1-0.2,0.2-0.3
			c0.1-0.1,0.2-0.2,0.3-0.2c0.1-0.1,0.3-0.1,0.4-0.1c0.2,0,0.3,0,0.4,0.1c0.1,0.1,0.2,0.1,0.3,0.2c0.1,0.1,0.2,0.2,0.2,0.3
			C69,1,69,1.2,69,1.3C69,1.5,69,1.6,68.9,1.7z M68.8,1c0-0.1-0.1-0.2-0.2-0.3c-0.1-0.1-0.2-0.1-0.3-0.2c-0.1,0-0.2-0.1-0.3-0.1
			c-0.1,0-0.2,0-0.4,0.1c-0.1,0-0.2,0.1-0.3,0.2c-0.1,0.1-0.1,0.2-0.2,0.3c0,0.1-0.1,0.2-0.1,0.3c0,0.1,0,0.2,0.1,0.3
			c0,0.1,0.1,0.2,0.2,0.3c0.1,0.1,0.2,0.1,0.3,0.2c0.1,0,0.2,0.1,0.4,0.1c0.1,0,0.2,0,0.3-0.1c0.1,0,0.2-0.1,0.3-0.2
			c0.1-0.1,0.1-0.2,0.2-0.3c0-0.1,0.1-0.2,0.1-0.3C68.9,1.2,68.8,1.1,68.8,1z M68.4,1.3c0,0.1-0.1,0.1-0.2,0.1l0.2,0.5h-0.2L68,1.4
			h-0.2v0.4h-0.2V0.7h0.5c0,0,0.1,0,0.1,0c0,0,0.1,0,0.1,0.1c0,0,0.1,0.1,0.1,0.1c0,0,0,0.1,0,0.2C68.4,1.2,68.4,1.2,68.4,1.3z
			 M68.2,1c0,0-0.1,0-0.1,0h-0.3v0.3h0.3c0.1,0,0.1,0,0.1,0c0,0,0.1-0.1,0.1-0.1C68.3,1,68.2,1,68.2,1z"/>
	</g>
	<g>
		<path class="st0" d="M80.2,8.9C80,9.4,79.8,9.7,79.4,10s-0.8,0.5-1.3,0.7c-0.5,0.2-1.1,0.2-1.9,0.2c-0.9,0-1.7-0.2-2.4-0.5
			S72.5,9.6,72.1,9l1.5-1.4c0.4,0.4,0.8,0.7,1.2,0.9c0.5,0.2,0.9,0.3,1.5,0.3c0.6,0,1.1-0.1,1.4-0.3c0.3-0.2,0.4-0.5,0.4-0.9
			c0-0.2,0-0.3-0.1-0.4C78.1,7.1,78,7,77.8,6.9c-0.2-0.1-0.4-0.2-0.7-0.3c-0.3-0.1-0.7-0.2-1.2-0.3c-0.5-0.1-0.9-0.2-1.3-0.4
			c-0.4-0.2-0.8-0.3-1.1-0.6s-0.5-0.5-0.7-0.9c-0.2-0.4-0.2-0.8-0.2-1.3c0-0.5,0.1-0.9,0.3-1.3s0.5-0.7,0.8-1
			c0.3-0.3,0.7-0.5,1.2-0.6c0.5-0.1,1-0.2,1.5-0.2c0.8,0,1.6,0.1,2.2,0.4c0.6,0.3,1.2,0.7,1.7,1.2l-1.5,1.5
			c-0.3-0.4-0.7-0.6-1.1-0.8c-0.4-0.2-0.8-0.3-1.3-0.3c-0.3,0-0.5,0-0.7,0.1c-0.2,0.1-0.3,0.1-0.5,0.2s-0.2,0.2-0.3,0.3
			c-0.1,0.1-0.1,0.2-0.1,0.3c0,0.2,0,0.3,0.1,0.4c0.1,0.1,0.2,0.2,0.3,0.3c0.2,0.1,0.4,0.2,0.7,0.3s0.6,0.2,1,0.3
			c0.4,0.1,0.8,0.2,1.3,0.4s0.8,0.3,1.1,0.6s0.6,0.5,0.8,0.9c0.2,0.4,0.3,0.8,0.3,1.4C80.4,8.1,80.3,8.5,80.2,8.9z"/>
		<path class="st0" d="M89.3,10.8l-0.8-2.4h-3.9l-0.8,2.4h-2.3l4.1-10.6h2.1l4,10.6H89.3z M87.1,4.5c-0.1-0.3-0.2-0.6-0.3-0.9
			c-0.1-0.3-0.2-0.5-0.2-0.7c-0.1,0.2-0.1,0.4-0.2,0.7c-0.1,0.3-0.2,0.6-0.3,0.9l-0.7,1.9h2.4L87.1,4.5z"/>
		<path class="st0" d="M96.6,2.2v8.5h-2.1V2.2h-3V0.2h8.2v2.1H96.6z"/>
		<path class="st0" d="M101.8,10.8V0.2h7.3v2.1h-5.2v1.8h3v2.1h-3v2.6h5.5v2.1H101.8z"/>
		<path class="st0" d="M111.6,10.8V0.2h2.1v8.5h5.3v2.1H111.6z"/>
		<path class="st0" d="M121,10.8V0.2h2.1v8.5h5.3v2.1H121z"/>
		<path class="st0" d="M130.5,10.8V0.2h2.1v10.6H130.5z"/>
		<path class="st0" d="M140,2.2v8.5h-2.1V2.2h-3V0.2h8.2v2.1H140z"/>
		<path class="st0" d="M145.1,10.8V0.2h7.3v2.1h-5.2v1.8h3v2.1h-3v2.6h5.5v2.1H145.1z"/>
	</g>
</g>
</svg>
