<?xml version="1.0" encoding="utf-8"?>
<!-- Generator: Adobe Illustrator 23.0.2, SVG Export Plug-In . SVG Version: 6.00 Build 0)  -->
<svg version="1.1" id="Layer_1" xmlns="http://www.w3.org/2000/svg" xmlns:xlink="http://www.w3.org/1999/xlink" x="0px" y="0px"
	 viewBox="0 0 918 718" style="enable-background:new 0 0 918 718;" xml:space="preserve">
<image style="display:none;overflow:visible;" width="3262" height="1716" xlink:href="../../Downloads/RH_Satellite_bkg.png"  transform="matrix(0.5 0 0 0.5 -1 -1)">
</image>
<path d="M589,398.9c64.2,0,157.1-13.2,157.1-89.6c0.2-5.9-0.3-11.8-1.6-17.6l-38.2-166.1c-8.8-36.5-16.6-53.1-80.7-85.2
	C575.8,15,467.3-27,435.3-27c-29.9,0-38.5,38.5-74.2,38.5c-34.3,0-59.7-28.7-91.8-28.7c-30.8,0-50.9,21-66.4,64.1
	c0,0-43.2,121.7-48.7,139.4c-0.9,3.2-1.3,6.6-1.1,10c0,47.3,186.3,202.5,435.9,202.5 M755.9,340.3c8.9,42,8.9,46.4,8.9,52
	c0,71.8-80.8,111.7-187,111.7c-240,0.2-450.2-140.5-450.2-233.4c0-12.9,2.6-25.7,7.7-37.6c-86.3,4.3-198,19.7-198,118.3
	c0,161.6,382.8,360.7,685.9,360.7c232.4,0,291-105.1,291-188.1c0-65.3-56.5-139.4-158.2-183.6"/>
</svg>
