<?xml version="1.0" encoding="utf-8"?>
<!-- Generator: Adobe Illustrator 22.1.0, SVG Export Plug-In . SVG Version: 6.00 Build 0)  -->
<svg version="1.1" id="Layer_1" xmlns="http://www.w3.org/2000/svg" xmlns:xlink="http://www.w3.org/1999/xlink" x="0px" y="0px"
	 viewBox="0 0 112.9 36.5" style="enable-background:new 0 0 112.9 36.5;" xml:space="preserve">
<style type="text/css">
	.st0{fill:#FFFFFF;}
	.st1{fill:#CC0000;}
</style>
<g>
	<g>
		<path class="st0" d="M36.2,27.2h0.2l0.2,0.4h0.2l-0.3-0.4c0.1,0,0.2-0.1,0.2-0.3c0-0.2-0.1-0.3-0.3-0.3H36v0.9h0.1V27.2z M36.2,27
			v-0.3h0.2c0.1,0,0.2,0,0.2,0.1c0,0.1-0.1,0.2-0.2,0.2L36.2,27L36.2,27z"/>
		<path class="st0" d="M37.2,27.1c0,0.5-0.4,0.9-0.9,0.9c-0.5,0-0.9-0.4-0.9-0.9c0-0.5,0.4-0.9,0.9-0.9
			C36.8,26.2,37.2,26.6,37.2,27.1z M36.3,26.3c-0.4,0-0.7,0.3-0.7,0.8c0,0.4,0.3,0.7,0.7,0.7c0.4,0,0.7-0.3,0.7-0.7
			C37.1,26.7,36.7,26.3,36.3,26.3z"/>
		<path class="st0" d="M31.3,27.9c-1.3,0-2.4,0.2-3.3,0.6c-0.1,0-0.2,0.1-0.2,0.3c0,0,0,0.1,0,0.1c0.1,0.3-0.1,0.6-0.9,0.8
			c-1.2,0.3-2,1.5-2.4,2c-0.5,0.5-2,0.8-1.8,0.5c0.2-0.2,0.8-0.9,1.2-1.7c0.4-0.7,0.7-0.9,1.1-1.6c0.1-0.2,0.6-0.9,0.8-1.4
			c0.2-0.5,0.1-1.2,0.2-1.5c0.1-0.4,0.5-1.2,0.5-1.7c0-0.3-1.1,0.4-1.7,0.4s-1.1-0.3-1.6-0.4c-0.6,0-1,0.5-1.5,0.4
			c-0.3,0-0.6-0.3-1.1-0.3c-0.8,0-1.7,0.4-3.5,0.4c-1.8-0.1-3.4-2.2-3.6-2.6c-0.3-0.4-0.6-0.4-0.9-0.1c-0.3,0.3-0.8,0.1-0.9-0.1
			c-0.2-0.4-0.8-1.6-1.8-1.8c-1.3-0.3-2,0.7-1.9,1.6c0.1,0.9,0.6,1.1,0.9,1.6c0.3,0.5,0.4,0.8,0.9,1c0.3,0.1,0.5,0.4,0.4,0.6
			c-0.1,0.2-0.4,0.3-0.7,0.3c-0.5,0-0.9-0.1-1.1-0.3c-0.3-0.2-0.5-0.5-0.8-0.9c-0.3-0.5-0.8-0.7-1.3-0.7c-0.3,0-0.5,0.1-0.7,0.2
			c-0.9,0.5-1.9,0.7-3,0.7l-1.3,0c2.4,7.1,9.1,12.2,17.1,12.2c6.3,0,11.9-3.3,15.1-8.2C32.8,28,32,27.9,31.3,27.9z"/>
		<path d="M22.3,26.5C22.2,26.5,22.2,26.5,22.3,26.5c-0.3,0.3-0.4,0.4-0.5,0.5c-0.4,0.3-0.9,0-1.2-0.2c-0.7-0.4-1.2-0.1-1.3,0.2
			c-0.1,0.3,0,0.7,0.4,0.6c0.5-0.1,0.5,0,0.9,0.2c0.7,0.4,1.2,0.2,1.4,0c0.2-0.2,0.3-0.3,0.4-0.5C22.6,26.9,22.4,26.6,22.3,26.5
			C22.3,26.5,22.3,26.5,22.3,26.5z"/>
		<path d="M18.3,0.3c-9.9,0-18,8.1-18,18c0,2,0.3,3.9,0.9,5.8h1.3c1.1,0,2.1-0.3,3-0.7c0.2-0.1,0.5-0.2,0.7-0.2c0.6,0,1,0.2,1.3,0.7
			c0.3,0.4,0.5,0.7,0.8,0.9C8.6,25,9,25.1,9.5,25.1c0.2,0,0.6-0.1,0.7-0.3c0.1-0.3,0-0.5-0.4-0.6c-0.5-0.2-0.6-0.5-0.9-1
			c-0.3-0.5-0.8-0.7-0.9-1.6c-0.1-0.9,0.6-1.9,1.9-1.6c1,0.2,1.6,1.4,1.8,1.8c0.1,0.2,0.5,0.5,0.9,0.1c0.3-0.3,0.7-0.3,0.9,0.1
			c0.2,0.3,1.8,2.5,3.6,2.6c1.8,0.1,2.7-0.4,3.5-0.4c0.5,0,0.8,0.3,1.1,0.3c0.5,0.1,0.9-0.4,1.5-0.4c0.5,0,1,0.3,1.6,0.3
			s1.7-0.7,1.7-0.4c0,0.5-0.4,1.3-0.5,1.7c-0.1,0.3,0,0.9-0.2,1.5c-0.1,0.5-0.6,1.2-0.8,1.4c-0.4,0.7-0.8,0.9-1.1,1.6
			c-0.4,0.8-1.1,1.5-1.2,1.7c-0.2,0.3,1.2,0,1.8-0.5c0.4-0.4,1.2-1.7,2.4-2c0.8-0.2,1-0.5,0.9-0.8c0,0,0-0.1,0-0.1
			c0-0.1,0.1-0.2,0.2-0.3c0.9-0.4,2-0.6,3.3-0.6c0.7,0,1.5,0.1,2.2,0.3c1.8-2.8,2.9-6.2,2.9-9.8C36.3,8.4,28.3,0.3,18.3,0.3z"/>
		<path class="st1" d="M28.5,13.5c-0.2,0.6-0.4,1.4-1.6,1.9c-0.2,0.1-0.2-0.1-0.2-0.2c0.4-0.7,0.5-0.9,0.6-1.2
			c0.2-0.4,0.3-1-0.1-2.2c-0.7-2.4-2.1-5.7-3.1-6.7c-1-1-2.8-1.3-4.4-0.9C19.2,4.4,18,5,15.9,4.5c-3.8-0.8-4.3,1-4.5,1.9
			c-0.2,0.8-0.7,3.1-0.7,3.1c-0.2,0.9-0.4,2.6,5.4,3.7c2.7,0.5,2.9,1.2,3,1.7c0.2,0.9,0.6,1.4,0.9,1.7c0.4,0.3,0,0.5-0.4,0.5
			c-1.2,0.1-5.4-1.1-8-2.5c-2.1-1.3-2.1-2.4-1.6-3.4c-3.1-0.3-5.5,0.3-5.9,1.8c-0.7,2.5,5.6,6.9,12.8,9c7.5,2.3,15.3,0.7,16.2-4
			C33.4,15.8,31.5,14.2,28.5,13.5z M16.9,8.9c-2.1,0.2-2.3,0.4-2.7,0.8C13.7,10.3,13,8.9,13,8.9c-0.4-0.1-1-0.8-0.7-1.4
			c0.3-0.6,0.8-0.5,1-0.3c0.2,0.2,0.6,0.6,1.2,0.6c0.5,0,1.2-0.1,2.1-0.1c0.9,0,1.5,0.3,1.5,0.6C18,8.6,17.9,8.8,16.9,8.9z
			 M21.4,6.8c-0.4,0-0.7-0.1-1-0.2c0,0-0.1,0-0.1-0.1s0-0.1,0.1-0.1c0.7-0.2,1.2-0.4,1.2-0.7c0-0.3-1-0.5-2.1-0.4
			c-0.1,0-0.2,0-0.4,0c0,0,0,0,0,0c0,0-0.1,0-0.1-0.1c0,0,0,0,0,0c0.4-0.2,1-0.4,1.7-0.5c0.2,0,0.4,0,0.6,0c0,0,0.1,0,0.1,0
			c1.2,0,2.1,0.5,2.1,1C23.5,6.4,22.6,6.9,21.4,6.8z"/>
	</g>
	<g>
		<path class="st0" d="M45.5,19.5c0-1.7,0-2.9-0.1-4h2.7l0.1,2.3h0.1c0.6-1.7,2-2.6,3.4-2.6c0.3,0,0.5,0,0.7,0.1v2.9
			c-0.3-0.1-0.6-0.1-0.9-0.1c-1.5,0-2.5,0.9-2.8,2.4c-0.1,0.3-0.1,0.6-0.1,0.9v6.4h-3.1L45.5,19.5z"/>
		<path class="st0" d="M56.2,22.5c0.1,2.2,1.8,3.2,3.8,3.2c1.4,0,2.5-0.2,3.4-0.6l0.5,2.1c-1.1,0.4-2.5,0.8-4.3,0.8
			c-4,0-6.3-2.5-6.3-6.3c0-3.4,2.1-6.6,6-6.6c4,0,5.3,3.3,5.3,6c0,0.6-0.1,1-0.1,1.3L56.2,22.5z M61.6,20.3c0-1.1-0.5-3-2.6-3
			c-1.9,0-2.7,1.7-2.9,3H61.6z"/>
		<path class="st0" d="M101.5,24.9c0,1,0,2,0.2,2.9h-1.1l-0.2-1.8h-0.1c-0.6,1-2,2-3.9,2c-2.5,0-3.6-1.7-3.6-3.4
			c0-2.8,2.5-4.6,7.5-4.5v-0.3c0-1.2-0.2-3.7-3.2-3.6c-1.1,0-2.2,0.3-3.1,0.9l-0.4-0.9c1.1-0.8,2.5-1.1,3.6-1.1
			c3.6,0,4.2,2.7,4.2,4.9V24.9z M100.2,21.2c-2.7-0.1-6.2,0.3-6.2,3.3c0,1.8,1.2,2.6,2.5,2.6c2.1,0,3.2-1.3,3.7-2.5
			c0.1-0.3,0.1-0.5,0.1-0.7L100.2,21.2L100.2,21.2z"/>
		<path class="st0" d="M106.3,12.8v2.7h3.5v1h-3.5v8c0,1.6,0.5,2.6,1.8,2.6c0.6,0,1.1-0.1,1.4-0.2l0.1,0.9c-0.4,0.2-1,0.3-1.7,0.3
			c-0.9,0-1.6-0.3-2.1-0.9c-0.6-0.6-0.8-1.7-0.8-2.9v-7.8H103v-1h2.1v-2.3L106.3,12.8z"/>
		<path class="st0" d="M111.4,27.2h0.2l0.2,0.4h0.2l-0.3-0.4c0.1,0,0.2-0.1,0.2-0.3c0-0.2-0.1-0.3-0.3-0.3h-0.4v0.9h0.1L111.4,27.2
			L111.4,27.2z M111.4,27.1v-0.3h0.2c0.1,0,0.2,0,0.2,0.1c0,0.1-0.1,0.2-0.2,0.2H111.4z"/>
		<path class="st0" d="M112.5,27.1c0,0.5-0.4,0.9-0.9,0.9c-0.5,0-0.9-0.4-0.9-0.9c0-0.5,0.4-0.9,0.9-0.9
			C112.1,26.2,112.5,26.6,112.5,27.1z M111.6,26.4c-0.4,0-0.7,0.3-0.7,0.7c0,0.4,0.3,0.7,0.7,0.7c0.4,0,0.7-0.3,0.7-0.7
			C112.3,26.7,112,26.4,111.6,26.4z"/>
		<path class="st0" d="M74.9,16.8L74.9,16.8c-0.6-0.9-1.8-1.6-3.5-1.6c-3,0-5.5,2.5-5.5,6.6c0,3.8,2.3,6.3,5.3,6.3
			c1.8,0,3.3-0.8,4-2.2h0.1l0.1,2h2.8C78,27,78,25.6,78,24.4V10.8l-3.1-0.9L74.9,16.8L74.9,16.8z M74.9,22.5c0,0.3,0,0.6-0.1,0.9
			c-0.3,1.3-1.4,2.2-2.7,2.2c-2,0-3.1-1.7-3.1-3.9c0-2.3,1.1-4.1,3.1-4.1c1.4,0,2.4,1,2.7,2.2c0.1,0.3,0.1,0.6,0.1,0.8V22.5z"/>
		<path class="st0" d="M86.2,15.2c-0.9,0-1.8,0.3-2.5,0.7c-0.7,0.4-1.3,1.1-1.7,1.8h0v-5.8l-1.2-0.4v16.3H82v-7.5
			c0-0.5,0-0.8,0.2-1.2c0.5-1.5,2-2.8,3.7-2.8c2.5,0,3.4,2,3.4,4.2v7.3h1.2v-7.4C90.5,15.8,87.4,15.2,86.2,15.2z"/>
	</g>
</g>
</svg>
